<svg width="1584" height="396" viewBox="0 0 1584 396" fill="none" xmlns="http://www.w3.org/2000/svg">
<mask id="mask0_896_45" style="mask-type:alpha" maskUnits="userSpaceOnUse" x="241" y="78" width="240" height="240">
<rect x="241" y="78" width="240" height="240" fill="#D9D9D9"/>
</mask>
<g mask="url(#mask0_896_45)">
<path d="M351 128V88H371V128H351ZM417.5 155.5L403.75 141.75L431.75 113L445.75 127.25L417.5 155.5ZM431 208V188H471V208H431ZM351 308V268H371V308H351ZM304.5 155L276 127.25L290.25 113.25L318.5 141.5L304.5 155ZM431.5 283L403.75 254.25L417.25 240.75L445.75 268.25L431.5 283ZM251 208V188H291V208H251ZM290.25 283L276.25 268.75L304.25 240.75L311.5 247.5L318.75 254.5L290.25 283ZM361 258C344.333 258 330.167 252.167 318.5 240.5C306.833 228.833 301 214.667 301 198C301 181.333 306.833 167.167 318.5 155.5C330.167 143.833 344.333 138 361 138C377.667 138 391.833 143.833 403.5 155.5C415.167 167.167 421 181.333 421 198C421 214.667 415.167 228.833 403.5 240.5C391.833 252.167 377.667 258 361 258ZM361 238C372 238 381.417 234.083 389.25 226.25C397.083 218.417 401 209 401 198C401 187 397.083 177.583 389.25 169.75C381.417 161.917 372 158 361 158C350 158 340.583 161.917 332.75 169.75C324.917 177.583 321 187 321 198C321 209 324.917 218.417 332.75 226.25C340.583 234.083 350 238 361 238Z" fill="#E8C300"/>
</g>
<path d="M573.621 204L554.53 134.182H563.121L577.712 191.045H578.393L593.257 134.182H602.803L617.666 191.045H618.348L632.939 134.182H641.53L622.439 204H613.712L598.303 148.364H597.757L582.348 204H573.621ZM668.053 205.091C663.007 205.091 658.655 203.977 654.996 201.75C651.359 199.5 648.553 196.364 646.575 192.341C644.621 188.295 643.643 183.591 643.643 178.227C643.643 172.864 644.621 168.136 646.575 164.045C648.553 159.932 651.303 156.727 654.825 154.432C658.371 152.114 662.507 150.955 667.234 150.955C669.962 150.955 672.655 151.409 675.314 152.318C677.973 153.227 680.393 154.705 682.575 156.75C684.757 158.773 686.496 161.455 687.791 164.795C689.087 168.136 689.734 172.25 689.734 177.136V180.545H649.371V173.591H681.553C681.553 170.636 680.962 168 679.78 165.682C678.621 163.364 676.962 161.534 674.803 160.193C672.666 158.852 670.143 158.182 667.234 158.182C664.03 158.182 661.257 158.977 658.916 160.568C656.598 162.136 654.814 164.182 653.564 166.705C652.314 169.227 651.689 171.932 651.689 174.818V179.455C651.689 183.409 652.371 186.761 653.734 189.511C655.121 192.239 657.041 194.318 659.496 195.75C661.95 197.159 664.803 197.864 668.053 197.864C670.166 197.864 672.075 197.568 673.78 196.977C675.507 196.364 676.996 195.455 678.246 194.25C679.496 193.023 680.462 191.5 681.143 189.682L688.916 191.864C688.098 194.5 686.723 196.818 684.791 198.818C682.859 200.795 680.473 202.341 677.632 203.455C674.791 204.545 671.598 205.091 668.053 205.091ZM717.382 205.227C714.064 205.227 711.053 204.602 708.348 203.352C705.643 202.08 703.496 200.25 701.905 197.864C700.314 195.455 699.518 192.545 699.518 189.136C699.518 186.136 700.109 183.705 701.291 181.841C702.473 179.955 704.053 178.477 706.03 177.409C708.007 176.341 710.189 175.545 712.575 175.023C714.984 174.477 717.405 174.045 719.837 173.727C723.018 173.318 725.598 173.011 727.575 172.807C729.575 172.58 731.03 172.205 731.939 171.682C732.871 171.159 733.337 170.25 733.337 168.955V168.682C733.337 165.318 732.416 162.705 730.575 160.841C728.757 158.977 725.996 158.045 722.291 158.045C718.45 158.045 715.439 158.886 713.257 160.568C711.075 162.25 709.541 164.045 708.655 165.955L701.018 163.227C702.382 160.045 704.2 157.568 706.473 155.795C708.768 154 711.268 152.75 713.973 152.045C716.7 151.318 719.382 150.955 722.018 150.955C723.7 150.955 725.632 151.159 727.814 151.568C730.018 151.955 732.143 152.761 734.189 153.989C736.257 155.216 737.973 157.068 739.337 159.545C740.7 162.023 741.382 165.341 741.382 169.5V204H733.337V196.909H732.928C732.382 198.045 731.473 199.261 730.2 200.557C728.928 201.852 727.234 202.955 725.121 203.864C723.007 204.773 720.428 205.227 717.382 205.227ZM718.609 198C721.791 198 724.473 197.375 726.655 196.125C728.859 194.875 730.518 193.261 731.632 191.284C732.768 189.307 733.337 187.227 733.337 185.045V177.682C732.996 178.091 732.246 178.466 731.087 178.807C729.95 179.125 728.632 179.409 727.132 179.659C725.655 179.886 724.212 180.091 722.803 180.273C721.416 180.432 720.291 180.568 719.428 180.682C717.337 180.955 715.382 181.398 713.564 182.011C711.768 182.602 710.314 183.5 709.2 184.705C708.109 185.886 707.564 187.5 707.564 189.545C707.564 192.341 708.598 194.455 710.666 195.886C712.757 197.295 715.405 198 718.609 198ZM778.839 151.636V158.455H751.703V151.636H778.839ZM759.612 139.091H767.658V189C767.658 191.273 767.987 192.977 768.646 194.114C769.328 195.227 770.192 195.977 771.237 196.364C772.305 196.727 773.43 196.909 774.612 196.909C775.499 196.909 776.226 196.864 776.794 196.773C777.362 196.659 777.817 196.568 778.158 196.5L779.794 203.727C779.249 203.932 778.487 204.136 777.51 204.341C776.533 204.568 775.294 204.682 773.794 204.682C771.521 204.682 769.294 204.193 767.112 203.216C764.953 202.239 763.158 200.75 761.726 198.75C760.317 196.75 759.612 194.227 759.612 191.182V139.091ZM800.112 172.5V204H792.067V134.182H800.112V159.818H800.794C802.021 157.114 803.862 154.966 806.317 153.375C808.794 151.761 812.089 150.955 816.203 150.955C819.771 150.955 822.896 151.67 825.578 153.102C828.26 154.511 830.339 156.682 831.817 159.614C833.317 162.523 834.067 166.227 834.067 170.727V204H826.021V171.273C826.021 167.114 824.942 163.898 822.783 161.625C820.646 159.33 817.68 158.182 813.885 158.182C811.249 158.182 808.885 158.739 806.794 159.852C804.726 160.966 803.089 162.591 801.885 164.727C800.703 166.864 800.112 169.455 800.112 172.5ZM870.74 205.091C865.695 205.091 861.342 203.977 857.683 201.75C854.047 199.5 851.24 196.364 849.263 192.341C847.308 188.295 846.331 183.591 846.331 178.227C846.331 172.864 847.308 168.136 849.263 164.045C851.24 159.932 853.99 156.727 857.513 154.432C861.058 152.114 865.195 150.955 869.922 150.955C872.649 150.955 875.342 151.409 878.001 152.318C880.661 153.227 883.081 154.705 885.263 156.75C887.445 158.773 889.183 161.455 890.479 164.795C891.774 168.136 892.422 172.25 892.422 177.136V180.545H852.058V173.591H884.24C884.24 170.636 883.649 168 882.467 165.682C881.308 163.364 879.649 161.534 877.49 160.193C875.354 158.852 872.831 158.182 869.922 158.182C866.717 158.182 863.945 158.977 861.604 160.568C859.286 162.136 857.501 164.182 856.251 166.705C855.001 169.227 854.376 171.932 854.376 174.818V179.455C854.376 183.409 855.058 186.761 856.422 189.511C857.808 192.239 859.729 194.318 862.183 195.75C864.638 197.159 867.49 197.864 870.74 197.864C872.854 197.864 874.763 197.568 876.467 196.977C878.195 196.364 879.683 195.455 880.933 194.25C882.183 193.023 883.149 191.5 883.831 189.682L891.604 191.864C890.786 194.5 889.411 196.818 887.479 198.818C885.547 200.795 883.161 202.341 880.32 203.455C877.479 204.545 874.286 205.091 870.74 205.091ZM904.661 204V151.636H912.433V159.545H912.979C913.933 156.955 915.661 154.852 918.161 153.239C920.661 151.625 923.479 150.818 926.615 150.818C927.206 150.818 927.945 150.83 928.831 150.852C929.717 150.875 930.388 150.909 930.842 150.955V159.136C930.57 159.068 929.945 158.966 928.967 158.83C928.013 158.67 927.001 158.591 925.933 158.591C923.388 158.591 921.115 159.125 919.115 160.193C917.138 161.239 915.57 162.693 914.411 164.557C913.274 166.398 912.706 168.5 912.706 170.864V204H904.661ZM997.652 156H989.197C988.697 153.568 987.822 151.432 986.572 149.591C985.345 147.75 983.845 146.205 982.072 144.955C980.322 143.682 978.379 142.727 976.243 142.091C974.107 141.455 971.879 141.136 969.561 141.136C965.334 141.136 961.504 142.205 958.072 144.341C954.663 146.477 951.947 149.625 949.925 153.784C947.925 157.943 946.925 163.045 946.925 169.091C946.925 175.136 947.925 180.239 949.925 184.398C951.947 188.557 954.663 191.705 958.072 193.841C961.504 195.977 965.334 197.045 969.561 197.045C971.879 197.045 974.107 196.727 976.243 196.091C978.379 195.455 980.322 194.511 982.072 193.261C983.845 191.989 985.345 190.432 986.572 188.591C987.822 186.727 988.697 184.591 989.197 182.182H997.652C997.016 185.75 995.857 188.943 994.175 191.761C992.493 194.58 990.402 196.977 987.902 198.955C985.402 200.909 982.595 202.398 979.482 203.42C976.391 204.443 973.084 204.955 969.561 204.955C963.607 204.955 958.311 203.5 953.675 200.591C949.038 197.682 945.391 193.545 942.732 188.182C940.072 182.818 938.743 176.455 938.743 169.091C938.743 161.727 940.072 155.364 942.732 150C945.391 144.636 949.038 140.5 953.675 137.591C958.311 134.682 963.607 133.227 969.561 133.227C973.084 133.227 976.391 133.739 979.482 134.761C982.595 135.784 985.402 137.284 987.902 139.261C990.402 141.216 992.493 143.602 994.175 146.42C995.857 149.216 997.016 152.409 997.652 156ZM1031.5 205.091C1026.77 205.091 1022.62 203.966 1019.05 201.716C1015.51 199.466 1012.73 196.318 1010.73 192.273C1008.76 188.227 1007.77 183.5 1007.77 178.091C1007.77 172.636 1008.76 167.875 1010.73 163.807C1012.73 159.739 1015.51 156.58 1019.05 154.33C1022.62 152.08 1026.77 150.955 1031.5 150.955C1036.22 150.955 1040.36 152.08 1043.9 154.33C1047.47 156.58 1050.25 159.739 1052.22 163.807C1054.22 167.875 1055.22 172.636 1055.22 178.091C1055.22 183.5 1054.22 188.227 1052.22 192.273C1050.25 196.318 1047.47 199.466 1043.9 201.716C1040.36 203.966 1036.22 205.091 1031.5 205.091ZM1031.5 197.864C1035.09 197.864 1038.04 196.943 1040.36 195.102C1042.68 193.261 1044.39 190.841 1045.51 187.841C1046.62 184.841 1047.18 181.591 1047.18 178.091C1047.18 174.591 1046.62 171.33 1045.51 168.307C1044.39 165.284 1042.68 162.841 1040.36 160.977C1038.04 159.114 1035.09 158.182 1031.5 158.182C1027.9 158.182 1024.95 159.114 1022.63 160.977C1020.31 162.841 1018.6 165.284 1017.48 168.307C1016.37 171.33 1015.81 174.591 1015.81 178.091C1015.81 181.591 1016.37 184.841 1017.48 187.841C1018.6 190.841 1020.31 193.261 1022.63 195.102C1024.95 196.943 1027.9 197.864 1031.5 197.864ZM1075.55 134.182V204H1067.5V134.182H1075.55ZM1098.33 134.182V204H1090.29V134.182H1098.33ZM1135.02 205.091C1129.98 205.091 1125.62 203.977 1121.96 201.75C1118.33 199.5 1115.52 196.364 1113.54 192.341C1111.59 188.295 1110.61 183.591 1110.61 178.227C1110.61 172.864 1111.59 168.136 1113.54 164.045C1115.52 159.932 1118.27 156.727 1121.79 154.432C1125.34 152.114 1129.48 150.955 1134.2 150.955C1136.93 150.955 1139.62 151.409 1142.28 152.318C1144.94 153.227 1147.36 154.705 1149.54 156.75C1151.73 158.773 1153.46 161.455 1154.76 164.795C1156.06 168.136 1156.7 172.25 1156.7 177.136V180.545H1116.34V173.591H1148.52C1148.52 170.636 1147.93 168 1146.75 165.682C1145.59 163.364 1143.93 161.534 1141.77 160.193C1139.63 158.852 1137.11 158.182 1134.2 158.182C1131 158.182 1128.23 158.977 1125.88 160.568C1123.57 162.136 1121.78 164.182 1120.53 166.705C1119.28 169.227 1118.66 171.932 1118.66 174.818V179.455C1118.66 183.409 1119.34 186.761 1120.7 189.511C1122.09 192.239 1124.01 194.318 1126.46 195.75C1128.92 197.159 1131.77 197.864 1135.02 197.864C1137.13 197.864 1139.04 197.568 1140.75 196.977C1142.48 196.364 1143.96 195.455 1145.21 194.25C1146.46 193.023 1147.43 191.5 1148.11 189.682L1155.88 191.864C1155.07 194.5 1153.69 196.818 1151.76 198.818C1149.83 200.795 1147.44 202.341 1144.6 203.455C1141.76 204.545 1138.57 205.091 1135.02 205.091ZM1190.21 205.091C1185.31 205.091 1181.08 203.932 1177.53 201.614C1173.99 199.295 1171.26 196.102 1169.35 192.034C1167.44 187.966 1166.49 183.318 1166.49 178.091C1166.49 172.773 1167.46 168.08 1169.42 164.011C1171.4 159.92 1174.15 156.727 1177.67 154.432C1181.21 152.114 1185.35 150.955 1190.08 150.955C1193.76 150.955 1197.08 151.636 1200.03 153C1202.99 154.364 1205.41 156.273 1207.29 158.727C1209.18 161.182 1210.35 164.045 1210.81 167.318H1202.76C1202.15 164.932 1200.78 162.818 1198.67 160.977C1196.58 159.114 1193.76 158.182 1190.21 158.182C1187.08 158.182 1184.33 159 1181.96 160.636C1179.62 162.25 1177.79 164.534 1176.48 167.489C1175.18 170.42 1174.53 173.864 1174.53 177.818C1174.53 181.864 1175.17 185.386 1176.44 188.386C1177.74 191.386 1179.56 193.716 1181.9 195.375C1184.26 197.034 1187.03 197.864 1190.21 197.864C1192.31 197.864 1194.2 197.5 1195.91 196.773C1197.61 196.045 1199.06 195 1200.24 193.636C1201.42 192.273 1202.26 190.636 1202.76 188.727H1210.81C1210.35 191.818 1209.23 194.602 1207.43 197.08C1205.66 199.534 1203.31 201.489 1200.37 202.943C1197.46 204.375 1194.08 205.091 1190.21 205.091ZM1245.34 151.636V158.455H1218.2V151.636H1245.34ZM1226.11 139.091H1234.16V189C1234.16 191.273 1234.49 192.977 1235.15 194.114C1235.83 195.227 1236.69 195.977 1237.74 196.364C1238.81 196.727 1239.93 196.909 1241.11 196.909C1242 196.909 1242.73 196.864 1243.29 196.773C1243.86 196.659 1244.32 196.568 1244.66 196.5L1246.29 203.727C1245.75 203.932 1244.99 204.136 1244.01 204.341C1243.03 204.568 1241.79 204.682 1240.29 204.682C1238.02 204.682 1235.79 204.193 1233.61 203.216C1231.45 202.239 1229.66 200.75 1228.23 198.75C1226.82 196.75 1226.11 194.227 1226.11 191.182V139.091ZM1278.15 205.091C1273.42 205.091 1269.28 203.966 1265.71 201.716C1262.16 199.466 1259.39 196.318 1257.39 192.273C1255.41 188.227 1254.42 183.5 1254.42 178.091C1254.42 172.636 1255.41 167.875 1257.39 163.807C1259.39 159.739 1262.16 156.58 1265.71 154.33C1269.28 152.08 1273.42 150.955 1278.15 150.955C1282.88 150.955 1287.02 152.08 1290.56 154.33C1294.13 156.58 1296.9 159.739 1298.88 163.807C1300.88 167.875 1301.88 172.636 1301.88 178.091C1301.88 183.5 1300.88 188.227 1298.88 192.273C1296.9 196.318 1294.13 199.466 1290.56 201.716C1287.02 203.966 1282.88 205.091 1278.15 205.091ZM1278.15 197.864C1281.74 197.864 1284.7 196.943 1287.02 195.102C1289.33 193.261 1291.05 190.841 1292.16 187.841C1293.28 184.841 1293.83 181.591 1293.83 178.091C1293.83 174.591 1293.28 171.33 1292.16 168.307C1291.05 165.284 1289.33 162.841 1287.02 160.977C1284.7 159.114 1281.74 158.182 1278.15 158.182C1274.56 158.182 1271.61 159.114 1269.29 160.977C1266.97 162.841 1265.25 165.284 1264.14 168.307C1263.03 171.33 1262.47 174.591 1262.47 178.091C1262.47 181.591 1263.03 184.841 1264.14 187.841C1265.25 190.841 1266.97 193.261 1269.29 195.102C1271.61 196.943 1274.56 197.864 1278.15 197.864ZM1314.16 204V151.636H1321.93V159.545H1322.48C1323.43 156.955 1325.16 154.852 1327.66 153.239C1330.16 151.625 1332.98 150.818 1336.12 150.818C1336.71 150.818 1337.44 150.83 1338.33 150.852C1339.22 150.875 1339.89 150.909 1340.34 150.955V159.136C1340.07 159.068 1339.44 158.966 1338.47 158.83C1337.51 158.67 1336.5 158.591 1335.43 158.591C1332.89 158.591 1330.62 159.125 1328.62 160.193C1326.64 161.239 1325.07 162.693 1323.91 164.557C1322.77 166.398 1322.21 168.5 1322.21 170.864V204H1314.16Z" fill="white"/>
<path d="M876.29 238.091H881.335L893.199 267.068H893.608L905.472 238.091H910.517V273H906.562V246.477H906.222L895.312 273H891.494L880.585 246.477H880.244V273H876.29V238.091ZM929.084 273.545C926.72 273.545 924.646 272.983 922.862 271.858C921.089 270.733 919.703 269.159 918.703 267.136C917.714 265.114 917.22 262.75 917.22 260.045C917.22 257.318 917.714 254.937 918.703 252.903C919.703 250.869 921.089 249.29 922.862 248.165C924.646 247.04 926.72 246.477 929.084 246.477C931.447 246.477 933.516 247.04 935.288 248.165C937.072 249.29 938.459 250.869 939.447 252.903C940.447 254.937 940.947 257.318 940.947 260.045C940.947 262.75 940.447 265.114 939.447 267.136C938.459 269.159 937.072 270.733 935.288 271.858C933.516 272.983 931.447 273.545 929.084 273.545ZM929.084 269.932C930.879 269.932 932.357 269.472 933.516 268.551C934.675 267.631 935.533 266.42 936.089 264.92C936.646 263.42 936.925 261.795 936.925 260.045C936.925 258.295 936.646 256.665 936.089 255.153C935.533 253.642 934.675 252.42 933.516 251.489C932.357 250.557 930.879 250.091 929.084 250.091C927.288 250.091 925.811 250.557 924.652 251.489C923.493 252.42 922.635 253.642 922.078 255.153C921.521 256.665 921.243 258.295 921.243 260.045C921.243 261.795 921.521 263.42 922.078 264.92C922.635 266.42 923.493 267.631 924.652 268.551C925.811 269.472 927.288 269.932 929.084 269.932ZM947.634 273V238.091H951.656V250.977H951.997C952.293 250.523 952.702 249.943 953.224 249.239C953.759 248.523 954.52 247.886 955.509 247.33C956.509 246.761 957.861 246.477 959.565 246.477C961.77 246.477 963.713 247.028 965.395 248.131C967.077 249.233 968.389 250.795 969.332 252.818C970.276 254.841 970.747 257.227 970.747 259.977C970.747 262.75 970.276 265.153 969.332 267.188C968.389 269.21 967.082 270.778 965.412 271.892C963.741 272.994 961.815 273.545 959.634 273.545C957.952 273.545 956.605 273.267 955.594 272.71C954.582 272.142 953.804 271.5 953.259 270.784C952.713 270.057 952.293 269.455 951.997 268.977H951.52V273H947.634ZM951.588 259.909C951.588 261.886 951.878 263.631 952.457 265.142C953.037 266.642 953.884 267.818 954.997 268.67C956.111 269.511 957.474 269.932 959.088 269.932C960.77 269.932 962.173 269.489 963.298 268.602C964.435 267.705 965.287 266.5 965.855 264.989C966.435 263.466 966.724 261.773 966.724 259.909C966.724 258.068 966.44 256.409 965.872 254.932C965.315 253.443 964.469 252.267 963.332 251.403C962.207 250.528 960.793 250.091 959.088 250.091C957.452 250.091 956.077 250.506 954.963 251.335C953.849 252.153 953.009 253.301 952.44 254.778C951.872 256.244 951.588 257.955 951.588 259.909ZM976.901 273V246.818H980.923V273H976.901ZM978.946 242.455C978.162 242.455 977.486 242.188 976.918 241.653C976.361 241.119 976.082 240.477 976.082 239.727C976.082 238.977 976.361 238.335 976.918 237.801C977.486 237.267 978.162 237 978.946 237C979.73 237 980.401 237.267 980.957 237.801C981.526 238.335 981.81 238.977 981.81 239.727C981.81 240.477 981.526 241.119 980.957 241.653C980.401 242.188 979.73 242.455 978.946 242.455ZM992.314 238.091V273H988.291V238.091H992.314ZM1010.66 273.545C1008.14 273.545 1005.96 272.989 1004.13 271.875C1002.31 270.75 1000.91 269.182 999.92 267.17C998.943 265.148 998.455 262.795 998.455 260.114C998.455 257.432 998.943 255.068 999.92 253.023C1000.91 250.966 1002.28 249.364 1004.05 248.216C1005.82 247.057 1007.89 246.477 1010.25 246.477C1011.61 246.477 1012.96 246.705 1014.29 247.159C1015.62 247.614 1016.83 248.352 1017.92 249.375C1019.01 250.386 1019.88 251.727 1020.53 253.398C1021.18 255.068 1021.5 257.125 1021.5 259.568V261.273H1001.32V257.795H1017.41C1017.41 256.318 1017.11 255 1016.52 253.841C1015.94 252.682 1015.11 251.767 1014.03 251.097C1012.97 250.426 1011.7 250.091 1010.25 250.091C1008.65 250.091 1007.26 250.489 1006.09 251.284C1004.93 252.068 1004.04 253.091 1003.41 254.352C1002.79 255.614 1002.48 256.966 1002.48 258.409V260.727C1002.48 262.705 1002.82 264.381 1003.5 265.756C1004.19 267.119 1005.15 268.159 1006.38 268.875C1007.61 269.58 1009.03 269.932 1010.66 269.932C1011.72 269.932 1012.67 269.784 1013.52 269.489C1014.39 269.182 1015.13 268.727 1015.76 268.125C1016.38 267.511 1016.86 266.75 1017.2 265.841L1021.09 266.932C1020.68 268.25 1019.99 269.409 1019.03 270.409C1018.06 271.398 1016.87 272.17 1015.45 272.727C1014.03 273.273 1012.43 273.545 1010.66 273.545Z" fill="white"/>
</svg>
