<svg width="512" height="512" viewBox="0 0 512 512" fill="none" xmlns="http://www.w3.org/2000/svg">
<g clip-path="url(#clip0_919_2)">
<rect width="512" height="512" fill="white"/>
<mask id="mask0_919_2" style="mask-type:alpha" maskUnits="userSpaceOnUse" x="136" y="136" width="240" height="240">
<rect x="136" y="136" width="240" height="240" fill="#D9D9D9"/>
</mask>
<g mask="url(#mask0_919_2)">
<path d="M246 186V146H266V186H246ZM312.5 213.5L298.75 199.75L326.75 171L340.75 185.25L312.5 213.5ZM326 266V246H366V266H326ZM246 366V326H266V366H246ZM199.5 213L171 185.25L185.25 171.25L213.5 199.5L199.5 213ZM326.5 341L298.75 312.25L312.25 298.75L340.75 326.25L326.5 341ZM146 266V246H186V266H146ZM185.25 341L171.25 326.75L199.25 298.75L206.5 305.5L213.75 312.5L185.25 341ZM256 316C239.333 316 225.167 310.167 213.5 298.5C201.833 286.833 196 272.667 196 256C196 239.333 201.833 225.167 213.5 213.5C225.167 201.833 239.333 196 256 196C272.667 196 286.833 201.833 298.5 213.5C310.167 225.167 316 239.333 316 256C316 272.667 310.167 286.833 298.5 298.5C286.833 310.167 272.667 316 256 316ZM256 296C267 296 276.417 292.083 284.25 284.25C292.083 276.417 296 267 296 256C296 245 292.083 235.583 284.25 227.75C276.417 219.917 267 216 256 216C245 216 235.583 219.917 227.75 227.75C219.917 235.583 216 245 216 256C216 267 219.917 276.417 227.75 284.25C235.583 292.083 245 296 256 296Z" fill="#E8C300"/>
</g>
</g>
<defs>
<clipPath id="clip0_919_2">
<rect width="512" height="512" fill="white"/>
</clipPath>
</defs>
</svg>
