<svg width="512" height="512" viewBox="0 0 512 512" fill="none" xmlns="http://www.w3.org/2000/svg">
<path d="M451.498 383.565C464.316 405.783 448.227 433.556 422.625 433.556H89.371C63.7203 433.556 47.7051 405.74 60.4981 383.565L227.127 94.6563C239.952 72.4278 272.072 72.4681 284.873 94.6563L451.498 383.565ZM256 323.833C238.358 323.833 224.056 338.135 224.056 355.778C224.056 373.42 238.358 387.722 256 387.722C273.643 387.722 287.945 373.42 287.945 355.778C287.945 338.135 273.643 323.833 256 323.833ZM225.672 209.01L230.823 303.454C231.064 307.874 234.718 311.333 239.144 311.333H272.856C277.282 311.333 280.936 307.874 281.177 303.454L286.329 209.01C286.589 204.236 282.788 200.222 278.008 200.222H233.992C229.211 200.222 225.411 204.236 225.672 209.01Z" fill="black"/>
</svg>
