<svg width="512" height="512" viewBox="0 0 512 512" fill="none" xmlns="http://www.w3.org/2000/svg">
<path d="M431 113.143V148.857C431 180.33 352.615 206 256 206C159.385 206 81 180.33 81 148.857V113.143C81 81.6695 159.385 56 256 56C352.615 56 431 81.6695 431 113.143ZM431 193.5V273.857C431 305.33 352.615 331 256 331C159.385 331 81 305.33 81 273.857V193.5C118.598 219.393 187.413 231.447 256 231.447C324.587 231.447 393.402 219.393 431 193.5ZM431 318.5V398.857C431 430.33 352.615 456 256 456C159.385 456 81 430.33 81 398.857V318.5C118.598 344.393 187.413 356.447 256 356.447C324.587 356.447 393.402 344.393 431 318.5Z" fill="white"/>
</svg>
