<svg width="512" height="512" viewBox="0 0 512 512" fill="none" xmlns="http://www.w3.org/2000/svg">
<path d="M250.542 178.936L118.667 287.551V404.778C118.667 407.813 119.872 410.724 122.019 412.87C124.165 415.017 127.076 416.222 130.111 416.222L210.265 416.015C213.29 416 216.187 414.787 218.321 412.643C220.454 410.498 221.652 407.596 221.652 404.57V336.111C221.652 333.076 222.858 330.165 225.004 328.019C227.151 325.872 230.062 324.667 233.097 324.667H278.875C281.91 324.667 284.821 325.872 286.967 328.019C289.113 330.165 290.319 333.076 290.319 336.111V404.52C290.314 406.026 290.607 407.518 291.18 408.911C291.753 410.304 292.595 411.569 293.658 412.636C294.722 413.702 295.985 414.549 297.376 415.126C298.766 415.703 300.258 416.001 301.763 416.001L381.889 416.222C384.924 416.222 387.835 415.017 389.981 412.87C392.128 410.724 393.333 407.813 393.333 404.778V287.472L261.486 178.936C259.936 177.687 258.005 177.005 256.014 177.005C254.023 177.005 252.092 177.687 250.542 178.936ZM458.853 252.76L399.056 203.47V104.397C399.056 102.12 398.151 99.9373 396.542 98.3276C394.932 96.7179 392.749 95.8136 390.472 95.8136H350.417C348.14 95.8136 345.957 96.7179 344.347 98.3276C342.738 99.9373 341.833 102.12 341.833 104.397V156.333L277.794 103.646C271.649 98.5887 263.937 95.8237 255.979 95.8237C248.02 95.8237 240.308 98.5887 234.163 103.646L53.1043 252.76C52.2351 253.478 51.516 254.361 50.9881 255.357C50.4602 256.354 50.1337 257.444 50.0275 258.567C49.9212 259.689 50.0371 260.822 50.3687 261.9C50.7003 262.977 51.2409 263.979 51.9598 264.848L70.1994 287.022C70.9164 287.893 71.7982 288.615 72.7944 289.146C73.7907 289.676 74.8818 290.005 76.0053 290.113C77.1288 290.222 78.2626 290.107 79.3418 289.777C80.4211 289.446 81.4245 288.906 82.2948 288.188L250.542 149.61C252.092 148.36 254.023 147.679 256.014 147.679C258.005 147.679 259.936 148.36 261.486 149.61L429.741 288.188C430.61 288.906 431.612 289.447 432.689 289.779C433.767 290.11 434.9 290.226 436.022 290.12C437.145 290.014 438.235 289.687 439.232 289.159C440.228 288.631 441.111 287.912 441.829 287.043L460.069 264.869C460.787 263.996 461.325 262.989 461.653 261.906C461.981 260.824 462.091 259.687 461.978 258.562C461.865 257.437 461.531 256.345 460.994 255.349C460.458 254.353 459.73 253.473 458.853 252.76Z" fill="black"/>
</svg>
