<svg width="512" height="512" viewBox="0 0 512 512" fill="none" xmlns="http://www.w3.org/2000/svg">
<path d="M456 143.5V368.5C456 389.203 439.203 406 418.5 406H93.5C72.7969 406 56 389.203 56 368.5V143.5C56 122.797 72.7969 106 93.5 106H162.25L171.859 80.2969C177.328 65.6875 191.312 56 206.937 56H304.984C320.609 56 334.594 65.6875 340.063 80.2969L349.75 106H418.5C439.203 106 456 122.797 456 143.5ZM349.75 256C349.75 204.281 307.719 162.25 256 162.25C204.281 162.25 162.25 204.281 162.25 256C162.25 307.719 204.281 349.75 256 349.75C307.719 349.75 349.75 307.719 349.75 256ZM324.75 256C324.75 293.891 293.891 324.75 256 324.75C218.109 324.75 187.25 293.891 187.25 256C187.25 218.109 218.109 187.25 256 187.25C293.891 187.25 324.75 218.109 324.75 256Z" fill="white"/>
</svg>
