<svg width="512" height="512" viewBox="0 0 512 512" fill="none" xmlns="http://www.w3.org/2000/svg">
<path d="M437.216 302.313L403.934 283.094C407.294 264.969 407.294 246.376 403.934 228.251L437.216 209.032C441.044 206.844 442.763 202.313 441.513 198.094C432.841 170.282 418.075 145.126 398.778 124.188C395.809 120.985 390.966 120.204 387.216 122.391L353.934 141.61C339.95 129.579 323.856 120.282 306.434 114.188V75.8289C306.434 71.4539 303.388 67.6257 299.091 66.6882C270.419 60.282 241.044 60.5945 213.778 66.6882C209.481 67.6257 206.434 71.4539 206.434 75.8289V114.266C189.091 120.438 172.997 129.735 158.934 141.688L125.731 122.469C121.903 120.282 117.138 120.985 114.169 124.266C94.872 145.126 80.1063 170.282 71.4345 198.173C70.1063 202.391 71.9032 206.923 75.7313 209.11L109.013 228.329C105.653 246.454 105.653 265.048 109.013 283.173L75.7313 302.391C71.9032 304.579 70.1845 309.11 71.4345 313.329C80.1063 341.141 94.872 366.298 114.169 387.235C117.138 390.438 121.981 391.219 125.731 389.032L159.013 369.813C172.997 381.844 189.091 391.141 206.513 397.235V435.673C206.513 440.048 209.559 443.876 213.856 444.813C242.528 451.219 271.903 450.907 299.169 444.813C303.466 443.876 306.513 440.048 306.513 435.673V397.235C323.856 391.063 339.95 381.766 354.013 369.813L387.294 389.032C391.122 391.219 395.888 390.516 398.856 387.235C418.153 366.376 432.919 341.219 441.591 313.329C442.763 309.032 441.044 304.501 437.216 302.313ZM256.434 318.173C221.981 318.173 193.934 290.126 193.934 255.673C193.934 221.219 221.981 193.173 256.434 193.173C290.888 193.173 318.934 221.219 318.934 255.673C318.934 290.126 290.888 318.173 256.434 318.173Z" fill="white"/>
</svg>
