<svg width="512" height="512" viewBox="0 0 512 512" fill="none" xmlns="http://www.w3.org/2000/svg">
<path d="M316 306H346C351 306 356 301 356 296V191C356 186 351 181 346 181H316C311 181 306 186 306 191V296C306 301 311 306 316 306ZM391 306H421C426 306 431 301 431 296V116C431 111 426 106 421 106H391C386 106 381 111 381 116V296C381 301 386 306 391 306ZM166 306H196C201 306 206 301 206 296V241C206 236 201 231 196 231H166C161 231 156 236 156 241V296C156 301 161 306 166 306ZM241 306H271C276 306 281 301 281 296V141C281 136 276 131 271 131H241C236 131 231 136 231 141V296C231 301 236 306 241 306ZM443.5 356H106V118.5C106 111.594 100.406 106 93.5 106H68.5C61.5937 106 56 111.594 56 118.5V381C56 394.805 67.1953 406 81 406H443.5C450.406 406 456 400.406 456 393.5V368.5C456 361.594 450.406 356 443.5 356Z" fill="black"/>
</svg>
